<svg xmlns="http://www.w3.org/2000/svg" width="1200" height="630" viewBox="0 0 1200 630">
  <defs>
    <linearGradient id="bg" x1="0" y1="0" x2="1" y2="1">
      <stop offset="0" stop-color="#0b1220"/>
      <stop offset="1" stop-color="#111827"/>
    </linearGradient>
    <linearGradient id="accent" x1="0" y1="0" x2="1" y2="0">
      <stop offset="0" stop-color="#f59e0b"/>
      <stop offset="1" stop-color="#60a5fa"/>
    </linearGradient>
    <filter id="shadow" x="-20%" y="-20%" width="140%" height="140%">
      <feDropShadow dx="0" dy="12" stdDeviation="18" flood-color="#000" flood-opacity="0.35"/>
    </filter>
  </defs>
  <rect width="1200" height="630" fill="url(#bg)"/>
  <rect x="72" y="72" width="1056" height="486" rx="28" fill="#0b1220" opacity="0.75" filter="url(#shadow)"/>
  <rect x="96" y="96" width="1008" height="438" rx="22" fill="#0f172a" opacity="0.85"/>
  <rect x="96" y="96" width="1008" height="10" fill="url(#accent)"/>

  <text x="130" y="170" fill="#fcd34d" font-family="ui-sans-serif, system-ui, -apple-system, Segoe UI, Roboto, Arial" font-size="16" font-weight="600" letter-spacing="1.5">
    PATH OF EXILE 2 · PATCH DAY CHECKLIST
  </text>
  <text x="130" y="250" fill="#e5e7eb" font-family="ui-sans-serif, system-ui, -apple-system, Segoe UI, Roboto, Arial" font-size="44" font-weight="700">
    What to Prepare
  </text>
  <text x="130" y="300" fill="#cbd5e1" font-family="ui-sans-serif, system-ui, -apple-system, Segoe UI, Roboto, Arial" font-size="22" font-weight="500">
    A practical checklist before POE2 0.5 goes live
  </text>

  <g transform="translate(130 360)">
    <rect x="0" y="0" width="290" height="54" rx="999" fill="#111827" stroke="#334155"/>
    <circle cx="30" cy="27" r="10" fill="#f59e0b"/>
    <text x="52" y="34" fill="#e5e7eb" font-family="ui-sans-serif, system-ui, -apple-system, Segoe UI, Roboto, Arial" font-size="16" font-weight="600">
      poe2 0.5 what to prepare
    </text>
  </g>

  <g transform="translate(820 230)" opacity="0.95">
    <rect x="0" y="0" width="240" height="280" rx="22" fill="#111827" stroke="#334155"/>
    <rect x="24" y="28" width="180" height="16" rx="8" fill="#334155"/>
    <rect x="24" y="70" width="140" height="12" rx="6" fill="#1f2937"/>
    <rect x="24" y="110" width="170" height="12" rx="6" fill="#1f2937"/>
    <rect x="24" y="150" width="120" height="12" rx="6" fill="#1f2937"/>
    <rect x="24" y="190" width="160" height="12" rx="6" fill="#1f2937"/>
    <rect x="24" y="230" width="110" height="12" rx="6" fill="#1f2937"/>
    <circle cx="205" cy="74" r="8" fill="#22c55e"/>
    <circle cx="205" cy="114" r="8" fill="#22c55e"/>
    <circle cx="205" cy="154" r="8" fill="#f59e0b"/>
    <circle cx="205" cy="194" r="8" fill="#f59e0b"/>
    <circle cx="205" cy="234" r="8" fill="#60a5fa"/>
  </g>

  <text x="96" y="592" fill="#94a3b8" font-family="ui-sans-serif, system-ui, -apple-system, Segoe UI, Roboto, Arial" font-size="14">
    POE2Tools · Guides
  </text>
</svg>

