<svg xmlns="http://www.w3.org/2000/svg" width="1200" height="630" viewBox="0 0 1200 630">
  <defs>
    <linearGradient id="bg" x1="0" y1="0" x2="1" y2="1">
      <stop offset="0" stop-color="#0b1220"/>
      <stop offset="1" stop-color="#111827"/>
    </linearGradient>
    <linearGradient id="accent" x1="0" y1="0" x2="1" y2="0">
      <stop offset="0" stop-color="#22c55e"/>
      <stop offset="1" stop-color="#60a5fa"/>
    </linearGradient>
    <filter id="shadow" x="-20%" y="-20%" width="140%" height="140%">
      <feDropShadow dx="0" dy="12" stdDeviation="18" flood-color="#000" flood-opacity="0.35"/>
    </filter>
  </defs>
  <rect width="1200" height="630" fill="url(#bg)"/>
  <rect x="72" y="72" width="1056" height="486" rx="28" fill="#0b1220" opacity="0.75" filter="url(#shadow)"/>
  <rect x="96" y="96" width="1008" height="438" rx="22" fill="#0f172a" opacity="0.85"/>
  <rect x="96" y="96" width="1008" height="10" fill="url(#accent)"/>

  <text x="130" y="170" fill="#86efac" font-family="ui-sans-serif, system-ui, -apple-system, Segoe UI, Roboto, Arial" font-size="16" font-weight="600" letter-spacing="1.5">
    PATH OF EXILE 2 · RUNES OF ALDUR
  </text>
  <text x="130" y="250" fill="#e5e7eb" font-family="ui-sans-serif, system-ui, -apple-system, Segoe UI, Roboto, Arial" font-size="44" font-weight="700">
    Runes Explained
  </text>
  <text x="130" y="300" fill="#cbd5e1" font-family="ui-sans-serif, system-ui, -apple-system, Segoe UI, Roboto, Arial" font-size="22" font-weight="500">
    How rune modifiers work — and how to combine them efficiently
  </text>

  <g transform="translate(130 360)">
    <rect x="0" y="0" width="310" height="54" rx="999" fill="#111827" stroke="#334155"/>
    <circle cx="30" cy="27" r="10" fill="#22c55e"/>
    <text x="52" y="34" fill="#e5e7eb" font-family="ui-sans-serif, system-ui, -apple-system, Segoe UI, Roboto, Arial" font-size="16" font-weight="600">
      poe2 runes of aldur explained
    </text>
  </g>

  <g transform="translate(790 210)" fill="none" stroke="#93c5fd" stroke-width="3" opacity="0.9">
    <path d="M140 20c40 30 60 70 60 120s-20 90-60 120c-40-30-60-70-60-120s20-90 60-120z"/>
    <path d="M140 70c22 18 34 42 34 70s-12 52-34 70c-22-18-34-42-34-70s12-52 34-70z" stroke="#86efac"/>
    <path d="M60 200c40-20 80-20 120 0" stroke="#60a5fa"/>
    <path d="M60 220c40-10 80-10 120 0" stroke="#22c55e"/>
  </g>

  <text x="96" y="592" fill="#94a3b8" font-family="ui-sans-serif, system-ui, -apple-system, Segoe UI, Roboto, Arial" font-size="14">
    POE2Tools · Guides
  </text>
</svg>

