<svg xmlns="http://www.w3.org/2000/svg" width="1200" height="630" viewBox="0 0 1200 630">
  <defs>
    <linearGradient id="bg" x1="0" y1="0" x2="1" y2="1">
      <stop offset="0" stop-color="#0b1220"/>
      <stop offset="1" stop-color="#111827"/>
    </linearGradient>
    <linearGradient id="accent" x1="0" y1="0" x2="1" y2="0">
      <stop offset="0" stop-color="#60a5fa"/>
      <stop offset="1" stop-color="#34d399"/>
    </linearGradient>
    <filter id="shadow" x="-20%" y="-20%" width="140%" height="140%">
      <feDropShadow dx="0" dy="12" stdDeviation="18" flood-color="#000" flood-opacity="0.35"/>
    </filter>
  </defs>
  <rect width="1200" height="630" fill="url(#bg)"/>
  <circle cx="980" cy="140" r="220" fill="#0f172a" opacity="0.65"/>
  <circle cx="1060" cy="520" r="260" fill="#0b1220" opacity="0.65"/>
  <rect x="72" y="72" width="1056" height="486" rx="28" fill="#0b1220" opacity="0.75" filter="url(#shadow)"/>
  <rect x="96" y="96" width="1008" height="438" rx="22" fill="#0f172a" opacity="0.85"/>

  <rect x="96" y="96" width="1008" height="10" fill="url(#accent)"/>

  <text x="130" y="170" fill="#93c5fd" font-family="ui-sans-serif, system-ui, -apple-system, Segoe UI, Roboto, Arial" font-size="16" font-weight="600" letter-spacing="1.5">
    PATH OF EXILE 2 · PATCH 0.5
  </text>
  <text x="130" y="250" fill="#e5e7eb" font-family="ui-sans-serif, system-ui, -apple-system, Segoe UI, Roboto, Arial" font-size="44" font-weight="700">
    Beginners Guide
  </text>
  <text x="130" y="300" fill="#cbd5e1" font-family="ui-sans-serif, system-ui, -apple-system, Segoe UI, Roboto, Arial" font-size="22" font-weight="500">
    A complete pre-patch starter handbook for POE2 0.5
  </text>

  <g transform="translate(130 360)">
    <rect x="0" y="0" width="260" height="54" rx="999" fill="#111827" stroke="#334155"/>
    <circle cx="30" cy="27" r="10" fill="#34d399"/>
    <text x="52" y="34" fill="#e5e7eb" font-family="ui-sans-serif, system-ui, -apple-system, Segoe UI, Roboto, Arial" font-size="16" font-weight="600">
      poe2 0.5 beginners guide
    </text>
  </g>

  <g transform="translate(820 300)" opacity="0.95">
    <path d="M140 0c40 60 40 120 0 180-40-60-40-120 0-180z" fill="#22c55e"/>
    <path d="M140 40c22 34 22 68 0 102-22-34-22-68 0-102z" fill="#86efac"/>
    <path d="M40 80c70-10 140 10 200 60-70 10-140-10-200-60z" fill="#60a5fa"/>
    <path d="M70 100c48-7 96 7 136 40-48 7-96-7-136-40z" fill="#93c5fd"/>
  </g>

  <text x="96" y="592" fill="#94a3b8" font-family="ui-sans-serif, system-ui, -apple-system, Segoe UI, Roboto, Arial" font-size="14">
    POE2Tools · Guides
  </text>
</svg>

