<svg xmlns="http://www.w3.org/2000/svg" width="1200" height="630" viewBox="0 0 1200 630">
  <defs>
    <linearGradient id="faq-bg" x1="0" y1="0" x2="1" y2="1">
      <stop offset="0" stop-color="#0b1220"/>
      <stop offset="1" stop-color="#111827"/>
    </linearGradient>
    <linearGradient id="faq-accent" x1="0" y1="0" x2="1" y2="0">
      <stop offset="0" stop-color="#f59e0b"/>
      <stop offset="1" stop-color="#8b5cf6"/>
    </linearGradient>
    <filter id="faq-shadow" x="-20%" y="-20%" width="140%" height="140%">
      <feDropShadow dx="0" dy="12" stdDeviation="18" flood-color="#000" flood-opacity="0.35"/>
    </filter>
  </defs>
  <rect width="1200" height="630" fill="url(#faq-bg)"/>
  <rect x="72" y="72" width="1056" height="486" rx="28" fill="#0b1220" opacity="0.75" filter="url(#faq-shadow)"/>
  <rect x="96" y="96" width="1008" height="438" rx="22" fill="#0f172a" opacity="0.85"/>
  <rect x="96" y="96" width="1008" height="10" fill="url(#faq-accent)"/>

  <text x="130" y="170" fill="#fcd34d" font-family="ui-sans-serif, system-ui, -apple-system, Segoe UI, Roboto, Arial" font-size="16" font-weight="600" letter-spacing="1.5">
    PATH OF EXILE 2 - RETURN OF THE ANCIENTS
  </text>
  <text x="130" y="250" fill="#e5e7eb" font-family="ui-sans-serif, system-ui, -apple-system, Segoe UI, Roboto, Arial" font-size="44" font-weight="700">
    Patch 0.5 FAQ
  </text>
  <text x="130" y="300" fill="#cbd5e1" font-family="ui-sans-serif, system-ui, -apple-system, Segoe UI, Roboto, Arial" font-size="22" font-weight="500">
    Official answers in one place
  </text>

  <g transform="translate(130 350)">
    <rect x="0" y="0" width="260" height="44" rx="999" fill="#111827" stroke="#334155"/>
    <text x="20" y="29" fill="#f59e0b" font-family="ui-sans-serif, system-ui" font-size="15" font-weight="600">
      Economy
    </text>
  </g>
  <g transform="translate(410 350)">
    <rect x="0" y="0" width="260" height="44" rx="999" fill="#111827" stroke="#334155"/>
    <text x="20" y="29" fill="#8b5cf6" font-family="ui-sans-serif, system-ui" font-size="15" font-weight="600">
      New character
    </text>
  </g>
  <g transform="translate(130 410)">
    <rect x="0" y="0" width="260" height="44" rx="999" fill="#111827" stroke="#334155"/>
    <text x="20" y="29" fill="#60a5fa" font-family="ui-sans-serif, system-ui" font-size="15" font-weight="600">
      Atlas
    </text>
  </g>
  <g transform="translate(410 410)">
    <rect x="0" y="0" width="260" height="44" rx="999" fill="#111827" stroke="#334155"/>
    <text x="20" y="29" fill="#22c55e" font-family="ui-sans-serif, system-ui" font-size="15" font-weight="600">
      Stash
    </text>
  </g>

  <g transform="translate(820 200)" opacity="0.95">
    <rect x="0" y="0" width="240" height="310" rx="22" fill="#111827" stroke="#334155"/>
    <text x="24" y="40" fill="#fcd34d" font-family="ui-sans-serif, system-ui" font-size="14" font-weight="600">Key dates</text>
    <rect x="24" y="60" width="192" height="1" fill="#334155"/>
    <text x="24" y="90" fill="#94a3b8" font-family="ui-sans-serif, system-ui" font-size="13">Launch: May 29</text>
    <text x="24" y="120" fill="#94a3b8" font-family="ui-sans-serif, system-ui" font-size="13">Fresh trade league</text>
    <text x="24" y="150" fill="#94a3b8" font-family="ui-sans-serif, system-ui" font-size="13">New char in league</text>
    <text x="24" y="180" fill="#94a3b8" font-family="ui-sans-serif, system-ui" font-size="13">Atlas reset</text>
    <text x="24" y="210" fill="#94a3b8" font-family="ui-sans-serif, system-ui" font-size="13">Tabs carry over</text>
    <text x="24" y="240" fill="#94a3b8" font-family="ui-sans-serif, system-ui" font-size="13">Free update</text>
    <text x="24" y="270" fill="#94a3b8" font-family="ui-sans-serif, system-ui" font-size="13">Patch notes: May 21</text>
  </g>

  <text x="96" y="592" fill="#94a3b8" font-family="ui-sans-serif, system-ui, -apple-system, Segoe UI, Roboto, Arial" font-size="14">
    POE2Tools - Guides
  </text>
</svg>
